<svg width="70" height="70" viewBox="0 0 70 70" fill="none" xmlns="http://www.w3.org/2000/svg">
<g clip-path="url(#clip0_13_3186)">
<path d="M77 -7H-7V77H77V-7Z" fill="white"/>
<path d="M77 -7H-7V77H77V-7Z" fill="white"/>
<path d="M77 -7H-7V77H77V-7Z" fill="#A4C639"/>
<path d="M19.1918 33.9628V41.4528H24.4782V46.7393H35.0519V54.2293H40.3391V46.7393H35.0519V41.4528H24.4782V33.9628H19.1918ZM24.4782 54.2293V48.9421H19.1918V54.2293H24.4782V59.5157H35.0519V54.2293H24.4782ZM24.4782 28.6764V33.9628H35.0519V39.25H40.3391V33.9628H35.0519V28.6764H24.4782Z" fill="#3B1B72" fill-opacity="0.4"/>
<path d="M49.4146 54.2293V59.5157H54.7011V54.2293H49.4146Z" fill="#3B1B72" fill-opacity="0.4"/>
<path d="M17.2446 32.0157V39.5057H22.5311V44.7922H33.1047V52.2822H38.3919V44.7922H33.1047V39.5057H22.5311V32.0157H17.2446ZM22.5311 52.2822V46.995H17.2446V52.2822H22.5311V57.5686H33.1047V52.2822H22.5311ZM22.5311 26.7292V32.0157H33.1047V37.3029H38.3919V32.0157H33.1047V26.7292H22.5311Z" fill="white"/>
<path d="M47.4675 52.2822V57.5686H52.754V52.2822H47.4675Z" fill="white"/>
</g>
<defs>
<clipPath id="clip0_13_3186">
<rect width="70" height="70" fill="white"/>
</clipPath>
</defs>
</svg>
